{"asset":{"version":"2.0","generator":"VECTARY"},"nodes":[{"translation":[0,0,0],"scale":[0.001,0.001,0.001],"rotation":[-0.7071067811865475,0,0,0.7071067811865476],"name":"Group","children":[1]},{"translation":[0,0,0],"scale":[1,1,1],"rotation":[0,0,0,1],"name":"Blue astronaut 5","mesh":0}],"materials":[{"pbrMetallicRoughness":{"baseColorFactor":[1,1,1,1],"baseColorTexture":{"index":0,"extensions":{"KHR_texture_transform":{"offset":[0,0],"scale":[1,1],"rotation":0}},"texCoord":0},"metallicRoughnessTexture":{"index":1,"extensions":{"KHR_texture_transform":{"offset":[0,0],"scale":[1,1],"rotation":0}},"texCoord":0},"metallicFactor":0,"roughnessFactor":1},"name":"blue astronaut 5","emissiveFactor":[0,0,0],"extensions":{},"alphaMode":"OPAQUE","doubleSided":false}],"textures":[{"sampler":0,"source":0},{"sampler":0,"source":1}],"images":[{"uri":"Blue_astronaut_Base.jpg","mimeType":"image/jpeg"},{"uri":"metallicTexture&Blue_astronaut_Roughtness.jpg","mimeType":"image/jpeg"}],"samplers":[{"wrapS":10497,"wrapT":10497}],"meshes":[{"primitives":[{"mode":4,"attributes":{"POSITION":1,"NORMAL":2,"TEXCOORD_0":3},"material":0,"indices":0}]}],"accessors":[{"bufferView":0,"byteOffset":0,"componentType":5125,"count":148158,"type":"SCALAR"},{"bufferView":1,"byteOffset":0,"componentType":5126,"count":27891,"max":[686.8876953125,562.5299072265625,1699.7740478515625],"min":[-686.8876953125,-400.9360046386719,-0.22602081298828125],"type":"VEC3"},{"bufferView":2,"byteOffset":0,"componentType":5126,"count":27891,"type":"VEC3"},{"bufferView":3,"byteOffset":0,"componentType":5126,"count":27891,"type":"VEC2"},{"bufferView":4,"byteOffset":0,"componentType":5126,"count":2,"max":[4],"min":[0],"type":"SCALAR"},{"bufferView":5,"byteOffset":0,"componentType":5126,"count":6,"max":[0.8590013980865479,0.8590013980865479,0.8590013980865479],"min":[0,0,0],"type":"VEC3"}],"bufferViews":[{"buffer":0,"byteOffset":0,"byteLength":592632,"target":34963},{"buffer":0,"byteOffset":592632,"byteLength":334692,"target":34962},{"buffer":0,"byteOffset":927324,"byteLength":334692,"target":34962},{"buffer":0,"byteOffset":1262016,"byteLength":223128,"target":34962},{"buffer":0,"byteOffset":1485144,"byteLength":8},{"buffer":0,"byteOffset":1485152,"byteLength":72}],"scene":0,"scenes":[{"nodes":[0],"name":"Astronaut"}],"animations":[{"channels":[{"sampler":0,"target":{"node":1,"path":"scale"}}],"samplers":[{"interpolation":"CUBICSPLINE","input":4,"output":5}],"name":"Animation 1"}],"extensionsUsed":["KHR_texture_transform"],"buffers":[{"byteLength":1485224,"uri":"Astronaut.bin"}]}