{"asset":{"version":"2.0","generator":"VECTARY"},"nodes":[{"translation":[0,0,0],"scale":[0.001,0.001,0.001],"rotation":[-0.7071067811865475,0,0,0.7071067811865476],"name":"Group","children":[1,9]},{"translation":[0,0,23.5231495745642],"scale":[1,1,1],"rotation":[0,0,0,1],"name":"Group 1","children":[2,3,4,5,6,7,8]},{"translation":[0,0,0],"scale":[1,1,1],"rotation":[0,0,0,1],"name":"Cylinder 1","mesh":0},{"translation":[-20.91415470955405,-3.1,23.781136257638266],"scale":[0.2399034166261459,0.2399034166261459,0.2399034166261459],"rotation":[-0.7156423155860232,0,0,0.6984669470652672],"name":"3D Text - R","mesh":1},{"translation":[-14.240669531237872,-3.1,23.781136257638266],"scale":[0.2399034166261459,0.2399034166261459,0.2399034166261459],"rotation":[-0.7156423155860232,0,0,0.6984669470652672],"name":"3D Text - e","mesh":2},{"translation":[-8.183928243808735,-3.1,23.781136257638266],"scale":[0.2399034166261459,0.2399034166261459,0.2399034166261459],"rotation":[-0.7156423155860232,0,0,0.6984669470652672],"name":"3D Text - s","mesh":3},{"translation":[-3.033853189136614,-3.1,23.781136257638266],"scale":[0.2399034166261459,0.2399034166261459,0.2399034166261459],"rotation":[-0.7156423155860232,0,0,0.6984669470652672],"name":"3D Text - u","mesh":4},{"translation":[3.592190151419022,-3.1,23.781136257638266],"scale":[0.2399034166261459,0.2399034166261459,0.2399034166261459],"rotation":[-0.7156423155860232,0,0,0.6984669470652672],"name":"3D Text - m","mesh":5},{"translation":[13.63404581073365,-3.1,23.781136257638266],"scale":[0.2399034166261459,0.2399034166261459,0.2399034166261459],"rotation":[-0.7156423155860232,0,0,0.6984669470652672],"name":"3D Text - e","mesh":6},{"translation":[0,0,0],"scale":[1,1,1],"rotation":[0,0,0,1],"name":"Cylinder","mesh":7}],"materials":[{"pbrMetallicRoughness":{"baseColorFactor":[1,0.09868919754109445,0.09868919754109445,1],"metallicFactor":0.35,"roughnessFactor":0.2},"name":"Cosmopolitan 1","emissiveFactor":[0,0,0],"extensions":{},"alphaMode":"OPAQUE","doubleSided":false},{"pbrMetallicRoughness":{"baseColorFactor":[0.8670237934377415,0.8670237934377415,0.8670237934377415,1],"metallicFactor":0,"roughnessFactor":0.2},"name":"Garden Glory","emissiveFactor":[0,0,0],"extensions":{},"alphaMode":"OPAQUE","doubleSided":false},{"pbrMetallicRoughness":{"baseColorFactor":[0.8670237934377415,0.8670237934377415,0.8670237934377415,1],"metallicFactor":0,"roughnessFactor":0.2},"name":"Garden Glory","emissiveFactor":[0,0,0],"extensions":{},"alphaMode":"OPAQUE","doubleSided":false},{"pbrMetallicRoughness":{"baseColorFactor":[0.8670237934377415,0.8670237934377415,0.8670237934377415,1],"metallicFactor":0,"roughnessFactor":0.2},"name":"Garden Glory","emissiveFactor":[0,0,0],"extensions":{},"alphaMode":"OPAQUE","doubleSided":false},{"pbrMetallicRoughness":{"baseColorFactor":[0.8670237934377415,0.8670237934377415,0.8670237934377415,1],"metallicFactor":0,"roughnessFactor":0.2},"name":"Garden Glory","emissiveFactor":[0,0,0],"extensions":{},"alphaMode":"OPAQUE","doubleSided":false},{"pbrMetallicRoughness":{"baseColorFactor":[0.8670237934377415,0.8670237934377415,0.8670237934377415,1],"metallicFactor":0,"roughnessFactor":0.2},"name":"Garden Glory","emissiveFactor":[0,0,0],"extensions":{},"alphaMode":"OPAQUE","doubleSided":false},{"pbrMetallicRoughness":{"baseColorFactor":[0.8670237934377415,0.8670237934377415,0.8670237934377415,1],"metallicFactor":0,"roughnessFactor":0.2},"name":"Garden Glory","emissiveFactor":[0,0,0],"extensions":{},"alphaMode":"OPAQUE","doubleSided":false},{"pbrMetallicRoughness":{"baseColorFactor":[0.348864834082879,0.348864834082879,0.348864834082879,1],"metallicFactor":0,"roughnessFactor":0.2},"name":"Cosmopolitan","emissiveFactor":[0,0,0],"extensions":{},"alphaMode":"OPAQUE","doubleSided":false}],"meshes":[{"primitives":[{"mode":4,"attributes":{"POSITION":1,"NORMAL":2,"TEXCOORD_0":3},"material":0,"indices":0}]},{"primitives":[{"mode":4,"attributes":{"POSITION":5,"NORMAL":6,"TEXCOORD_0":7},"material":1,"indices":4}]},{"primitives":[{"mode":4,"attributes":{"POSITION":9,"NORMAL":10,"TEXCOORD_0":11},"material":2,"indices":8}]},{"primitives":[{"mode":4,"attributes":{"POSITION":13,"NORMAL":14,"TEXCOORD_0":15},"material":3,"indices":12}]},{"primitives":[{"mode":4,"attributes":{"POSITION":17,"NORMAL":18,"TEXCOORD_0":19},"material":4,"indices":16}]},{"primitives":[{"mode":4,"attributes":{"POSITION":21,"NORMAL":22,"TEXCOORD_0":23},"material":5,"indices":20}]},{"primitives":[{"mode":4,"attributes":{"POSITION":9,"NORMAL":10,"TEXCOORD_0":11},"material":6,"indices":8}]},{"primitives":[{"mode":4,"attributes":{"POSITION":25,"NORMAL":26,"TEXCOORD_0":27},"material":7,"indices":24}]}],"accessors":[{"bufferView":0,"byteOffset":0,"componentType":5125,"count":6912,"type":"SCALAR"},{"bufferView":1,"byteOffset":0,"componentType":5126,"count":1302,"max":[29.600000381469727,29.600000381469727,25.200000762939453],"min":[-29.600000381469727,-29.600000381469727,0],"type":"VEC3"},{"bufferView":2,"byteOffset":0,"componentType":5126,"count":1302,"type":"VEC3"},{"bufferView":3,"byteOffset":0,"componentType":5126,"count":1302,"type":"VEC2"},{"bufferView":4,"byteOffset":0,"componentType":5125,"count":552,"type":"SCALAR"},{"bufferView":5,"byteOffset":0,"componentType":5126,"count":368,"max":[30.054000854492188,2.1855658677570914e-15,35.69300079345703],"min":[4.9070000648498535,-15,0],"type":"VEC3"},{"bufferView":6,"byteOffset":0,"componentType":5126,"count":368,"type":"VEC3"},{"bufferView":7,"byteOffset":0,"componentType":5126,"count":368,"type":"VEC2"},{"bufferView":8,"byteOffset":0,"componentType":5125,"count":948,"type":"SCALAR"},{"bufferView":9,"byteOffset":0,"componentType":5126,"count":630,"max":[25.43899917602539,1.6683363158236856e-15,27.246000289916992],"min":[2.808000087738037,-15,-0.4880000054836273],"type":"VEC3"},{"bufferView":10,"byteOffset":0,"componentType":5126,"count":630,"type":"VEC3"},{"bufferView":11,"byteOffset":0,"componentType":5126,"count":630,"type":"VEC2"},{"bufferView":12,"byteOffset":0,"componentType":5125,"count":1392,"type":"SCALAR"},{"bufferView":13,"byteOffset":0,"componentType":5126,"count":930,"max":[21.558000564575195,1.6683363158236856e-15,27.246000289916992],"min":[2.5880000591278076,-15,-0.4880000054836273],"type":"VEC3"},{"bufferView":14,"byteOffset":0,"componentType":5126,"count":930,"type":"VEC3"},{"bufferView":15,"byteOffset":0,"componentType":5126,"count":930,"type":"VEC2"},{"bufferView":16,"byteOffset":0,"componentType":5125,"count":576,"type":"SCALAR"},{"bufferView":17,"byteOffset":0,"componentType":5126,"count":388,"max":[26.392000198364258,1.6384548992686853e-15,26.757999420166016],"min":[4.004000186920166,-15,-0.4880000054836273],"type":"VEC3"},{"bufferView":18,"byteOffset":0,"componentType":5126,"count":388,"type":"VEC3"},{"bufferView":19,"byteOffset":0,"componentType":5126,"count":388,"type":"VEC2"},{"bufferView":20,"byteOffset":0,"componentType":5125,"count":1044,"type":"SCALAR"},{"bufferView":21,"byteOffset":0,"componentType":5126,"count":698,"max":[42.45600128173828,1.6683363158236856e-15,27.246000289916992],"min":[4.296999931335449,-15,0],"type":"VEC3"},{"bufferView":22,"byteOffset":0,"componentType":5126,"count":698,"type":"VEC3"},{"bufferView":23,"byteOffset":0,"componentType":5126,"count":698,"type":"VEC2"},{"bufferView":24,"byteOffset":0,"componentType":5125,"count":6912,"type":"SCALAR"},{"bufferView":25,"byteOffset":0,"componentType":5126,"count":1302,"max":[47,47,28.600000381469727],"min":[-47,-47,0],"type":"VEC3"},{"bufferView":26,"byteOffset":0,"componentType":5126,"count":1302,"type":"VEC3"},{"bufferView":27,"byteOffset":0,"componentType":5126,"count":1302,"type":"VEC2"}],"bufferViews":[{"buffer":0,"byteOffset":0,"byteLength":27648,"target":34963},{"buffer":0,"byteOffset":27648,"byteLength":15624,"target":34962},{"buffer":0,"byteOffset":43272,"byteLength":15624,"target":34962},{"buffer":0,"byteOffset":58896,"byteLength":10416,"target":34962},{"buffer":0,"byteOffset":69312,"byteLength":2208,"target":34963},{"buffer":0,"byteOffset":71520,"byteLength":4416,"target":34962},{"buffer":0,"byteOffset":75936,"byteLength":4416,"target":34962},{"buffer":0,"byteOffset":80352,"byteLength":2944,"target":34962},{"buffer":0,"byteOffset":83296,"byteLength":3792,"target":34963},{"buffer":0,"byteOffset":87088,"byteLength":7560,"target":34962},{"buffer":0,"byteOffset":94648,"byteLength":7560,"target":34962},{"buffer":0,"byteOffset":102208,"byteLength":5040,"target":34962},{"buffer":0,"byteOffset":107248,"byteLength":5568,"target":34963},{"buffer":0,"byteOffset":112816,"byteLength":11160,"target":34962},{"buffer":0,"byteOffset":123976,"byteLength":11160,"target":34962},{"buffer":0,"byteOffset":135136,"byteLength":7440,"target":34962},{"buffer":0,"byteOffset":142576,"byteLength":2304,"target":34963},{"buffer":0,"byteOffset":144880,"byteLength":4656,"target":34962},{"buffer":0,"byteOffset":149536,"byteLength":4656,"target":34962},{"buffer":0,"byteOffset":154192,"byteLength":3104,"target":34962},{"buffer":0,"byteOffset":157296,"byteLength":4176,"target":34963},{"buffer":0,"byteOffset":161472,"byteLength":8376,"target":34962},{"buffer":0,"byteOffset":169848,"byteLength":8376,"target":34962},{"buffer":0,"byteOffset":178224,"byteLength":5584,"target":34962},{"buffer":0,"byteOffset":183808,"byteLength":27648,"target":34963},{"buffer":0,"byteOffset":211456,"byteLength":15624,"target":34962},{"buffer":0,"byteOffset":227080,"byteLength":15624,"target":34962},{"buffer":0,"byteOffset":242704,"byteLength":10416,"target":34962}],"scene":0,"scenes":[{"nodes":[0],"name":"Button"}],"extensionsUsed":["KHR_texture_transform"],"buffers":[{"byteLength":253120,"uri":"Button.bin"}]}