{"asset":{"version":"2.0","generator":"VECTARY"},"nodes":[{"translation":[0,-8.15246581566953e-8,1.4379730288283086e-8],"scale":[0.001,0.001,0.001],"rotation":[-0.7071067811865475,0,0,0.7071067811865476],"name":"Planet","children":[1]},{"translation":[0,0.000014379730288283099,0.0000815246581566953],"scale":[10,10,10],"rotation":[0,0,0,1],"name":"Planet","children":[2,3,4,5]},{"translation":[0,0,0],"scale":[1,1,1],"rotation":[0.7071067811865475,0,0,0.7071067811865476],"name":"_switchable","mesh":0},{"translation":[0,13.501101,9.245595],"scale":[1,1,1],"rotation":[0.7071067811865475,0,0,0.7071067811865476],"name":"Ring 1","mesh":1},{"translation":[0,13.980301,9.245646],"scale":[1,1,1],"rotation":[0.7071067811865475,0,0,0.7071067811865476],"name":"Ring 2","mesh":2},{"translation":[0,14.848601,9.245645],"scale":[1,1,1],"rotation":[0.7071067811865475,0,0,0.7071067811865476],"name":"Ring 3","mesh":3}],"materials":[{"pbrMetallicRoughness":{"baseColorFactor":[0.11926401300504741,0,1,1],"metallicFactor":0,"roughnessFactor":0.69},"name":"_switchable","emissiveFactor":[0,0,0],"extensions":{},"alphaMode":"OPAQUE","doubleSided":false},{"pbrMetallicRoughness":{"baseColorFactor":[0.20835965596076741,0.20835965596076741,0.20835965596076741,1],"metallicFactor":0,"roughnessFactor":0.7},"name":"Ring 1","emissiveFactor":[0,0,0],"extensions":{},"alphaMode":"OPAQUE","doubleSided":false},{"pbrMetallicRoughness":{"baseColorFactor":[0.042987010162657116,0.042987010162657116,0.042987010162657116,1],"metallicFactor":0,"roughnessFactor":0.7},"name":"Ring 2","emissiveFactor":[0,0,0],"extensions":{},"alphaMode":"OPAQUE","doubleSided":false},{"pbrMetallicRoughness":{"baseColorFactor":[0.028991186547107816,0.028991186547107816,0.028991186547107816,1],"metallicFactor":0,"roughnessFactor":0.7},"name":"Ring 3","emissiveFactor":[0,0,0],"extensions":{},"alphaMode":"OPAQUE","doubleSided":false}],"meshes":[{"primitives":[{"mode":4,"attributes":{"POSITION":1,"NORMAL":2,"TEXCOORD_0":3,"TEXCOORD_1":4},"material":0,"indices":0}]},{"primitives":[{"mode":4,"attributes":{"POSITION":6,"NORMAL":7,"TEXCOORD_0":8,"TEXCOORD_1":9},"material":1,"indices":5}]},{"primitives":[{"mode":4,"attributes":{"POSITION":11,"NORMAL":12,"TEXCOORD_0":13,"TEXCOORD_1":14},"material":2,"indices":10}]},{"primitives":[{"mode":4,"attributes":{"POSITION":16,"NORMAL":17,"TEXCOORD_0":18,"TEXCOORD_1":19},"material":3,"indices":15}]}],"accessors":[{"bufferView":0,"byteOffset":0,"componentType":5125,"count":23040,"type":"SCALAR"},{"bufferView":1,"byteOffset":0,"componentType":5126,"count":4068,"max":[8.761781692504883,17.573740005493164,8.539850234985352],"min":[-8.36526107788086,0.44669127464294434,-8.587202072143555],"type":"VEC3"},{"bufferView":2,"byteOffset":0,"componentType":5126,"count":4068,"type":"VEC3"},{"bufferView":3,"byteOffset":0,"componentType":5126,"count":4068,"type":"VEC2"},{"bufferView":4,"byteOffset":0,"componentType":5126,"count":4068,"type":"VEC2"},{"bufferView":5,"byteOffset":0,"componentType":5125,"count":24576,"type":"SCALAR"},{"bufferView":6,"byteOffset":0,"componentType":5126,"count":4488,"max":[13.023202896118164,8.409003257751465,27.00220489501953],"min":[-13.023202896118164,-8.409003257751465,9.536744016713783e-8],"type":"VEC3"},{"bufferView":7,"byteOffset":0,"componentType":5126,"count":4488,"type":"VEC3"},{"bufferView":8,"byteOffset":0,"componentType":5126,"count":4488,"type":"VEC2"},{"bufferView":9,"byteOffset":0,"componentType":5126,"count":4488,"type":"VEC2"},{"bufferView":10,"byteOffset":0,"componentType":5125,"count":13056,"type":"SCALAR"},{"bufferView":11,"byteOffset":0,"componentType":5126,"count":2376,"max":[13.4870023727417,8.717554092407227,27.96060562133789],"min":[-13.4870023727417,-8.717554092407227,-2.8610227786884934e-7],"type":"VEC3"},{"bufferView":12,"byteOffset":0,"componentType":5126,"count":2376,"type":"VEC3"},{"bufferView":13,"byteOffset":0,"componentType":5126,"count":2376,"type":"VEC2"},{"bufferView":14,"byteOffset":0,"componentType":5126,"count":2376,"type":"VEC2"},{"bufferView":15,"byteOffset":0,"componentType":5125,"count":15360,"type":"SCALAR"},{"bufferView":16,"byteOffset":0,"componentType":5126,"count":3300,"max":[14.322802543640137,9.245652198791504,29.69720458984375],"min":[-14.322802543640137,-9.24565315246582,2.8610230629055877e-7],"type":"VEC3"},{"bufferView":17,"byteOffset":0,"componentType":5126,"count":3300,"type":"VEC3"},{"bufferView":18,"byteOffset":0,"componentType":5126,"count":3300,"type":"VEC2"},{"bufferView":19,"byteOffset":0,"componentType":5126,"count":3300,"type":"VEC2"}],"bufferViews":[{"buffer":0,"byteOffset":0,"byteLength":92160,"target":34963},{"buffer":0,"byteOffset":92160,"byteLength":48816,"target":34962},{"buffer":0,"byteOffset":140976,"byteLength":48816,"target":34962},{"buffer":0,"byteOffset":189792,"byteLength":32544,"target":34962},{"buffer":0,"byteOffset":222336,"byteLength":32544,"target":34962},{"buffer":0,"byteOffset":254880,"byteLength":98304,"target":34963},{"buffer":0,"byteOffset":353184,"byteLength":53856,"target":34962},{"buffer":0,"byteOffset":407040,"byteLength":53856,"target":34962},{"buffer":0,"byteOffset":460896,"byteLength":35904,"target":34962},{"buffer":0,"byteOffset":496800,"byteLength":35904,"target":34962},{"buffer":0,"byteOffset":532704,"byteLength":52224,"target":34963},{"buffer":0,"byteOffset":584928,"byteLength":28512,"target":34962},{"buffer":0,"byteOffset":613440,"byteLength":28512,"target":34962},{"buffer":0,"byteOffset":641952,"byteLength":19008,"target":34962},{"buffer":0,"byteOffset":660960,"byteLength":19008,"target":34962},{"buffer":0,"byteOffset":679968,"byteLength":61440,"target":34963},{"buffer":0,"byteOffset":741408,"byteLength":39600,"target":34962},{"buffer":0,"byteOffset":781008,"byteLength":39600,"target":34962},{"buffer":0,"byteOffset":820608,"byteLength":26400,"target":34962},{"buffer":0,"byteOffset":847008,"byteLength":26400,"target":34962}],"scene":0,"scenes":[{"nodes":[0],"name":"Project Name"}],"extensionsUsed":["KHR_texture_transform"],"buffers":[{"byteLength":873408,"uri":"planet.bin"}]}