{"asset":{"version":"2.0","generator":"VECTARY"},"nodes":[{"translation":[-0.01780312020336095,-0.0031433089245506657,-0.0016346879012618491],"scale":[0.001,0.001,0.001],"rotation":[-0.7071067811865475,0,0,0.7071067811865476],"name":"Group","children":[1,2,3,4,5,6,7]},{"translation":[47.23375011291178,-47.36431373619765,42.33271700141863],"scale":[1.0110810224666718,1.0110810224666718,1.0110810224666718],"rotation":[0.11745198150578129,0.032308628770829344,0.26325253114830893,0.9570053758424363],"name":"Box - baked","mesh":0},{"translation":[42.69082292719713,46.717798167255175,42.33271700141863],"scale":[1.0110810224666722,1.0110810224666722,1.0110810224666718],"rotation":[0.030745897475911648,0.1178707140942413,0.9604172326119789,0.25051930833622854],"name":"Box - baked","mesh":1},{"translation":[-36.51521243002604,-4.257548134843056,42.33271700141863],"scale":[1.011081022466672,1.0110810224666718,1.0110810224666718],"rotation":[0.08670608402986962,-0.085562085323412,-0.6971647014636702,0.7064860675062078],"name":"Box - baked","mesh":2},{"translation":[74.78895434881957,-1.6912544231933868,115.90287833055487],"scale":[0.9177087594809311,0.9177087594809311,0.9177087594809311],"rotation":[0.00504272321548503,0.5970177097085284,-0.03305957129915611,0.8015307168053333],"name":"Torus","mesh":3},{"translation":[17.999327313482034,-1.6346879012618405,38.37084041522566],"scale":[0.6688361695313981,0.668836169531398,0.6688361695313981],"rotation":[6.132205965952946e-17,0.9999989249684357,6.132205965952946e-17,0.0014663089622660118],"name":"Cylinder 1","mesh":4},{"translation":[17.803120203360947,-1.6346879012618487,144.92435646424542],"scale":[1.2076123694015477,1.2076123694015477,1.2076123694015477],"rotation":[0,0,0,1],"name":"Cone","mesh":5},{"translation":[17.803120203360947,-1.6346879012618487,15.949808255568882],"scale":[1.1097887080418145,1.1097887080418145,1.1097887080418145],"rotation":[0,0,0,1],"name":"Cylinder","mesh":6}],"materials":[{"pbrMetallicRoughness":{"baseColorFactor":[0.6455552724449345,0.6455552724449345,0.6455552724449345,1],"metallicFactor":0,"roughnessFactor":0.2},"name":"Milton","emissiveFactor":[0,0,0],"extensions":{},"alphaMode":"OPAQUE","doubleSided":false},{"pbrMetallicRoughness":{"baseColorFactor":[0.6455552724449345,0.6455552724449345,0.6455552724449345,1],"metallicFactor":0,"roughnessFactor":0.2},"name":"Milton","emissiveFactor":[0,0,0],"extensions":{},"alphaMode":"OPAQUE","doubleSided":false},{"pbrMetallicRoughness":{"baseColorFactor":[0.6455552724449345,0.6455552724449345,0.6455552724449345,1],"metallicFactor":0,"roughnessFactor":0.2},"name":"Milton","emissiveFactor":[0,0,0],"extensions":{},"alphaMode":"OPAQUE","doubleSided":false},{"pbrMetallicRoughness":{"baseColorFactor":[0.41514809165590655,0.41514809165590655,0.41514809165590655,1],"metallicFactor":0,"roughnessFactor":0.2},"name":"Saturn","emissiveFactor":[0,0,0],"extensions":{},"alphaMode":"OPAQUE","doubleSided":false},{"pbrMetallicRoughness":{"baseColorFactor":[0.06575388026033009,0.06575388026033009,0.06575388026033009,1],"metallicFactor":0,"roughnessFactor":0.2},"name":"Alley","emissiveFactor":[0,0,0],"extensions":{},"alphaMode":"OPAQUE","doubleSided":false},{"pbrMetallicRoughness":{"baseColorFactor":[0.5479935021969718,0.5479935021969718,0.5479935021969718,1],"metallicFactor":0.3,"roughnessFactor":0.2},"name":"Retro","emissiveFactor":[0,0,0],"extensions":{},"alphaMode":"OPAQUE","doubleSided":false},{"pbrMetallicRoughness":{"baseColorFactor":[1,1,1,1],"baseColorTexture":{"index":0,"extensions":{"KHR_texture_transform":{"offset":[0,0],"scale":[1,1],"rotation":0}},"texCoord":0},"metallicFactor":0,"roughnessFactor":0.2},"name":"Urban Charm","emissiveFactor":[0,0,0],"extensions":{},"alphaMode":"OPAQUE","doubleSided":false}],"meshes":[{"primitives":[{"mode":4,"attributes":{"POSITION":1,"NORMAL":2,"TEXCOORD_0":3},"material":0,"indices":0}]},{"primitives":[{"mode":4,"attributes":{"POSITION":1,"NORMAL":2,"TEXCOORD_0":3},"material":1,"indices":0}]},{"primitives":[{"mode":4,"attributes":{"POSITION":1,"NORMAL":2,"TEXCOORD_0":3},"material":2,"indices":0}]},{"primitives":[{"mode":4,"attributes":{"POSITION":5,"NORMAL":6,"TEXCOORD_0":7},"material":3,"indices":4}]},{"primitives":[{"mode":4,"attributes":{"POSITION":9,"NORMAL":10,"TEXCOORD_0":11},"material":4,"indices":8}]},{"primitives":[{"mode":4,"attributes":{"POSITION":13,"NORMAL":14,"TEXCOORD_0":15},"material":5,"indices":12}]},{"primitives":[{"mode":4,"attributes":{"POSITION":17,"NORMAL":18,"TEXCOORD_0":19},"material":6,"indices":16}]}],"accessors":[{"bufferView":0,"byteOffset":0,"componentType":5125,"count":336,"type":"SCALAR"},{"bufferView":1,"byteOffset":0,"componentType":5126,"count":160,"max":[6,5.5,39],"min":[-6,-56.30964279174805,-26.8483829498291],"type":"VEC3"},{"bufferView":2,"byteOffset":0,"componentType":5126,"count":160,"type":"VEC3"},{"bufferView":3,"byteOffset":0,"componentType":5126,"count":160,"type":"VEC2"},{"bufferView":4,"byteOffset":0,"componentType":5125,"count":3468,"type":"SCALAR"},{"bufferView":5,"byteOffset":0,"componentType":5126,"count":630,"max":[23.45402717590332,23.35397720336914,5.388482093811035],"min":[-23.45402717590332,-23.35397720336914,0.011517715640366077],"type":"VEC3"},{"bufferView":6,"byteOffset":0,"componentType":5126,"count":630,"type":"VEC3"},{"bufferView":7,"byteOffset":0,"componentType":5126,"count":630,"type":"VEC2"},{"bufferView":8,"byteOffset":0,"componentType":5125,"count":768,"type":"SCALAR"},{"bufferView":9,"byteOffset":0,"componentType":5126,"count":260,"max":[71.54573059082031,71.54573059082031,57.19999694824219],"min":[-71.54573059082031,-71.54573059082031,-0.000002030105179073871],"type":"VEC3"},{"bufferView":10,"byteOffset":0,"componentType":5126,"count":260,"type":"VEC3"},{"bufferView":11,"byteOffset":0,"componentType":5126,"count":260,"type":"VEC2"},{"bufferView":12,"byteOffset":0,"componentType":5125,"count":4092,"type":"SCALAR"},{"bufferView":13,"byteOffset":0,"componentType":5126,"count":705,"max":[36.16743850708008,35.7993049621582,56.29372787475586],"min":[-36.16743850708008,-35.7993049621582,4.353288650512695],"type":"VEC3"},{"bufferView":14,"byteOffset":0,"componentType":5126,"count":705,"type":"VEC3"},{"bufferView":15,"byteOffset":0,"componentType":5126,"count":705,"type":"VEC2"},{"bufferView":16,"byteOffset":0,"componentType":5125,"count":11136,"type":"SCALAR"},{"bufferView":17,"byteOffset":0,"componentType":5126,"count":2017,"max":[59.40241241455078,59.40241241455078,131.33892822265625],"min":[-59.40241241455078,-59.40241241455078,10.810925483703613],"type":"VEC3"},{"bufferView":18,"byteOffset":0,"componentType":5126,"count":2017,"type":"VEC3"},{"bufferView":19,"byteOffset":0,"componentType":5126,"count":2017,"type":"VEC2"}],"bufferViews":[{"buffer":0,"byteOffset":0,"byteLength":1344,"target":34963},{"buffer":0,"byteOffset":1344,"byteLength":1920,"target":34962},{"buffer":0,"byteOffset":3264,"byteLength":1920,"target":34962},{"buffer":0,"byteOffset":5184,"byteLength":1280,"target":34962},{"buffer":0,"byteOffset":6464,"byteLength":13872,"target":34963},{"buffer":0,"byteOffset":20336,"byteLength":7560,"target":34962},{"buffer":0,"byteOffset":27896,"byteLength":7560,"target":34962},{"buffer":0,"byteOffset":35456,"byteLength":5040,"target":34962},{"buffer":0,"byteOffset":40496,"byteLength":3072,"target":34963},{"buffer":0,"byteOffset":43568,"byteLength":3120,"target":34962},{"buffer":0,"byteOffset":46688,"byteLength":3120,"target":34962},{"buffer":0,"byteOffset":49808,"byteLength":2080,"target":34962},{"buffer":0,"byteOffset":51888,"byteLength":16368,"target":34963},{"buffer":0,"byteOffset":68256,"byteLength":8460,"target":34962},{"buffer":0,"byteOffset":76716,"byteLength":8460,"target":34962},{"buffer":0,"byteOffset":85176,"byteLength":5640,"target":34962},{"buffer":0,"byteOffset":90816,"byteLength":44544,"target":34963},{"buffer":0,"byteOffset":135360,"byteLength":24204,"target":34962},{"buffer":0,"byteOffset":159564,"byteLength":24204,"target":34962},{"buffer":0,"byteOffset":183768,"byteLength":16136,"target":34962}],"textures":[{"sampler":0,"source":0}],"images":[{"uri":"Linear_Gradient_Texture.jpg","mimeType":"image/jpeg"}],"samplers":[{"wrapS":10497,"wrapT":10497}],"scene":0,"scenes":[{"nodes":[0],"name":"rocket"}],"extensionsUsed":["KHR_texture_transform"],"buffers":[{"byteLength":199904,"uri":"rocket.bin"}]}