{"asset":{"version":"2.0","generator":"VECTARY"},"nodes":[{"translation":[-0.008618524359111963,0.0035085179999999995,-0.0007745309999999988],"scale":[0.001,0.001,0.001],"rotation":[-0.7071067811865475,0,0,0.7071067811865476],"name":"Group","children":[1,2]},{"translation":[-35.82941264088804,0.5676620000000003,92.127077],"scale":[1.080082,1.080082,1.080082],"rotation":[0,-0.501202927413676,0,0.8653297784960144],"name":"Cone","mesh":0},{"translation":[6.987893359111962,3.3306690738754696e-16,0],"scale":[0.979897,0.979897,0.979897],"rotation":[0,0,0,0.9999999999999998],"name":"Box","mesh":1}],"materials":[{"pbrMetallicRoughness":{"baseColorFactor":[0.6800203421720954,0.6800203421720954,0.6800203421720954,1],"metallicFactor":0,"roughnessFactor":0.2},"name":"Malibu","emissiveFactor":[0,0,0],"extensions":{},"alphaMode":"OPAQUE","doubleSided":false},{"pbrMetallicRoughness":{"baseColorFactor":[0.6800203421720954,0.6800203421720954,0.6800203421720954,1],"metallicFactor":0,"roughnessFactor":0.2},"name":"Malibu","emissiveFactor":[0,0,0],"extensions":{},"alphaMode":"OPAQUE","doubleSided":false}],"meshes":[{"primitives":[{"mode":4,"attributes":{"POSITION":1,"NORMAL":2,"TEXCOORD_0":3},"material":0,"indices":0}]},{"primitives":[{"mode":4,"attributes":{"POSITION":5,"NORMAL":6,"TEXCOORD_0":7},"material":1,"indices":4}]}],"accessors":[{"bufferView":0,"byteOffset":0,"componentType":5125,"count":4992,"type":"SCALAR"},{"bufferView":1,"byteOffset":0,"componentType":5126,"count":897,"max":[4.721449375152588,4.721449375152588,21.15269660949707],"min":[-4.721449375152588,-4.721449375152588,0],"type":"VEC3"},{"bufferView":2,"byteOffset":0,"componentType":5126,"count":897,"type":"VEC3"},{"bufferView":3,"byteOffset":0,"componentType":5126,"count":897,"type":"VEC2"},{"bufferView":4,"byteOffset":0,"componentType":5125,"count":2916,"type":"SCALAR"},{"bufferView":5,"byteOffset":0,"componentType":5126,"count":596,"max":[50,6,100],"min":[-50,-6,0],"type":"VEC3"},{"bufferView":6,"byteOffset":0,"componentType":5126,"count":596,"type":"VEC3"},{"bufferView":7,"byteOffset":0,"componentType":5126,"count":596,"type":"VEC2"}],"bufferViews":[{"buffer":0,"byteOffset":0,"byteLength":19968,"target":34963},{"buffer":0,"byteOffset":19968,"byteLength":10764,"target":34962},{"buffer":0,"byteOffset":30732,"byteLength":10764,"target":34962},{"buffer":0,"byteOffset":41496,"byteLength":7176,"target":34962},{"buffer":0,"byteOffset":48672,"byteLength":11664,"target":34963},{"buffer":0,"byteOffset":60336,"byteLength":7152,"target":34962},{"buffer":0,"byteOffset":67488,"byteLength":7152,"target":34962},{"buffer":0,"byteOffset":74640,"byteLength":4768,"target":34962}],"scene":0,"scenes":[{"nodes":[0],"name":"Project Name"}],"extensionsUsed":["KHR_texture_transform"],"buffers":[{"byteLength":79408,"uri":"textBox.bin"}]}